HIERARCHY
ROOT Hips
{
	OFFSET 0.00000 0.00000 0.00000
	CHANNELS 6 Xposition Yposition Zposition Zrotation Yrotation Xrotation 
	JOINT LHipJoint
	{
		OFFSET 0 0 0
		CHANNELS 3 Zrotation Yrotation Xrotation
		JOINT LeftHip
		{
			OFFSET 1.26600 -1.82114 0.91038
			CHANNELS 3 Zrotation Yrotation Xrotation
			JOINT LeftKnee
			{
				OFFSET 2.50076 -6.87080 0.00000
				CHANNELS 3 Zrotation Yrotation Xrotation
				JOINT LeftAnkle
				{
					OFFSET 2.57364 -7.07102 0.00000
					CHANNELS 3 Zrotation Yrotation Xrotation
					JOINT LeftToe
					{
						OFFSET 0.13572 -0.37290 1.97004
						CHANNELS 3 Zrotation Yrotation Xrotation
						End Site
						{
							OFFSET 0.00000 -0.00000 1.01383
						}
					}
				}
			}
		}
	}
	JOINT RHipJoint
	{
		OFFSET 0 0 0
		CHANNELS 3 Zrotation Yrotation Xrotation
		JOINT RightHip
		{
			OFFSET -1.20803 -1.82114 0.91038
			CHANNELS 3 Zrotation Yrotation Xrotation
			JOINT RightKnee
			{
				OFFSET -2.54916 -7.00377 0.00000
				CHANNELS 3 Zrotation Yrotation Xrotation
				JOINT RightAnkle
				{
					OFFSET -2.56374 -7.04382 0.00000
					CHANNELS 3 Zrotation Yrotation Xrotation
					JOINT RightToe
					{
						OFFSET -0.23520 -0.64621 2.09921
						CHANNELS 3 Zrotation Yrotation Xrotation
						End Site
						{
							OFFSET -0.00000 -0.00000 1.10065
						}
					}
				}
			}
		}
	}
	JOINT lowerback
	{
		OFFSET 0 0 0
		CHANNELS 3 Zrotation Yrotation Xrotation
		JOINT Chest
		{
			OFFSET 0.05492 2.10797 -0.12074
			CHANNELS 3 Zrotation Yrotation Xrotation
			JOINT Chest2
			{
				OFFSET 0.04577 2.11592 -0.04483
				CHANNELS 3 Zrotation Yrotation Xrotation
				JOINT lowerneck
				{
					OFFSET 0 0 0
					CHANNELS 3 Zrotation Yrotation Xrotation
					JOINT Neck
					{
						OFFSET -0.10759 1.80167 0.15770
						CHANNELS 3 Zrotation Yrotation Xrotation
						JOINT Head
						{
							OFFSET 0.09237 1.77509 -0.40848
							CHANNELS 3 Zrotation Yrotation Xrotation
							End Site
							{
								OFFSET 0.03805 1.84093 -0.15754
							}
						}
					}
				}
				JOINT LeftCollar
				{
					OFFSET 0 0 0
					CHANNELS 3 Zrotation Yrotation Xrotation
					JOINT LeftShoulder
					{
						OFFSET 3.42372 1.09575 -0.28209
CHANNELS 3 Zrotation Xrotation Yrotation
						JOINT LeftElbow
						{
OFFSET 0 -4.956810 0.000000
CHANNELS 3 Zrotation Xrotation Yrotation
							JOINT LeftWrist
							{
OFFSET 0 -3.409150 0.000000
CHANNELS 3 Zrotation Xrotation Yrotation
								JOINT lhand
								{
									OFFSET 0 0 0
CHANNELS 3 Zrotation Xrotation Yrotation
									JOINT LFingers
									{
OFFSET 0 -0.616400 0.000000
CHANNELS 3 Zrotation Xrotation Yrotation
										End Site
										{
OFFSET 0 -0.496960 0.000000
										}
									}
								}
								JOINT LThumb
								{
OFFSET 0 0.000000 0.000000
CHANNELS 3 Zrotation Xrotation Yrotation
									End Site
									{
OFFSET 0 -0.504550 0.504550
									}
								}
							}
						}
					}
				}
				JOINT RightCollar
				{
					OFFSET 0 0 0
					CHANNELS 3 Zrotation Yrotation Xrotation
					JOINT RightShoulder
					{
						OFFSET -3.24731 1.15872 -0.32221
CHANNELS 3 Zrotation Xrotation Yrotation
						JOINT RightElbow
						{
OFFSET 0 -5.352000 0.000000
CHANNELS 3 Zrotation Xrotation Yrotation
							JOINT RightWrist
							{
OFFSET 0 -3.437210 -0.000000
CHANNELS 3 Zrotation Xrotation Yrotation
								JOINT rhand
								{
									OFFSET 0 0 0
CHANNELS 3 Zrotation Xrotation Yrotation
									JOINT RFingers
									{
OFFSET 0 -0.720090 0.000000
CHANNELS 3 Zrotation Xrotation Yrotation
										End Site
										{
OFFSET 0 -0.580560 0.000000
										}
									}
								}
								JOINT RThumb
								{
OFFSET 0 0.000000 0.000000
CHANNELS 3 Zrotation Xrotation Yrotation
									End Site
									{
OFFSET 0 -0.589420 0.589420
									}
								}
							}
						}
					}
				}
			}
		}
	}
}
MOTION
Frames: 11
Frame Time: 0.008333333333333333
-7.711416 17.816339 20.407636 -738.151417 -81.701738 1096.560985 0.000000 0.000000 0.000000 -13.189468 -10.007829 -13.259138 5.625711 14.054506 43.458585 0.374476 -11.091178 -12.506829 0.020591 -0.915601 -2.516577 0.000000 0.000000 0.000000 25.110841 -2.553741 -15.237729 -2.114720 -9.100867 26.111546 -0.294309 2.686112 -9.671796 -0.713758 -5.395986 15.042221 4.914340 1.360402 7.231113 3.394221 2.101685 2.536978 0.574189 1.001992 -1.375871 -10.660780 -2.998810 -13.344908 4.348192 -3.588305 30.474325 2.928662 -2.514674 12.613160 0.000000 0.000000 0.000000 -1.361127 6.575728 -23.025139 16.984037 -26.836529 4.080229 10.947352 6.023782 -17.905501 0.000000 0.000000 0.000000 -7.125000 0.000000 0.000000 -16.336539 47.507530 1.035601 0.000000 0.000000 0.000000 -8.873164 -1.685786 20.370261 -23.917378 -35.076522 -7.659049 -22.785055 -20.968561 -10.744909 0.000000 0.000000 0.000000 7.125000 0.000000 0.000000 3.021945 18.358608 1.919035
-8.039757 17.772207 20.464642 -739.784317 -82.702487 1098.863439 0.000000 0.000000 0.000000 -13.030869 -15.533263 -13.641243 4.031760 12.201779 36.450642 0.120558 -14.303148 -11.392001 0.000811 -0.143890 -0.395434 0.000000 0.000000 0.000000 24.910134 -1.715373 -15.673823 -2.513000 -9.861545 28.529420 -0.445836 4.541923 -11.879771 -0.717057 -5.409769 15.081515 5.301866 1.349204 6.777138 3.049049 2.088996 2.409255 0.013484 1.003523 -1.228375 -10.016454 -2.872220 -13.055748 4.040308 -3.553204 30.664806 2.706859 -2.482768 12.602579 0.000000 0.000000 0.000000 -1.169661 6.383504 -23.981177 17.772772 -27.865162 4.442573 12.904306 4.791743 -18.086345 0.000000 0.000000 0.000000 -7.125000 0.000000 0.000000 -14.597276 47.952183 1.084585 0.000000 0.000000 0.000000 -8.551525 -1.561393 21.378764 -25.997725 -37.206417 -8.886283 -21.606259 -20.412537 -10.675400 0.000000 0.000000 0.000000 7.125000 0.000000 0.000000 3.851726 18.533035 2.433252
-8.341084 17.718151 20.520003 -743.809147 -84.686565 1103.242254 0.000000 0.000000 0.000000 -12.136431 -20.334841 -14.556102 3.123944 10.892525 31.918950 -0.674548 -19.124389 -6.510688 0.001183 0.166494 0.457498 0.000000 0.000000 0.000000 24.303535 0.814785 -14.071318 -2.478423 -9.798550 28.326721 -0.445508 5.948024 -11.972887 -1.845045 -8.535517 24.352929 4.536866 1.365485 6.858131 3.080092 2.067876 2.413894 0.470208 0.990085 -1.300027 -10.347459 -2.827046 -13.305146 4.147631 -3.432899 30.852605 2.822742 -2.464529 12.732888 0.000000 0.000000 0.000000 -1.433566 5.713016 -23.323758 17.576617 -27.611256 4.351499 11.409020 5.659219 -16.487811 0.000000 0.000000 0.000000 -7.125000 0.000000 0.000000 -15.412708 46.195357 0.447244 0.000000 0.000000 0.000000 -8.299393 -1.554074 22.513787 -26.907819 -38.091136 -9.442230 -21.804771 -22.574242 -11.689610 0.000000 0.000000 0.000000 7.125000 0.000000 0.000000 3.744775 17.433527 2.456054
-8.639997 17.692608 20.614101 -788.934845 -87.167206 1148.873740 0.000000 0.000000 0.000000 -9.916242 -20.741527 -16.492448 2.542353 9.914150 28.699549 -2.505115 -27.049807 5.813442 0.631052 5.069956 14.111024 0.000000 0.000000 0.000000 24.827102 2.381633 -13.003804 -2.518703 -9.871727 28.562346 -0.496691 8.441497 -13.021468 -1.228732 -7.028623 19.800803 4.449810 1.890247 6.635426 3.208862 2.742397 2.396631 0.608390 1.325170 -1.188088 -10.088863 -2.959026 -13.354393 4.156807 -3.723477 30.857844 2.735405 -2.570057 12.763686 0.000000 0.000000 0.000000 -1.339365 5.483365 -24.691176 17.699252 -27.770277 4.408267 13.201793 4.397891 -19.214969 0.000000 0.000000 0.000000 -7.125000 0.000000 0.000000 -14.733653 49.102657 1.521338 0.000000 0.000000 0.000000 -7.346084 -1.844368 22.222406 -25.917092 -37.126239 -8.837772 -21.658766 -22.696851 -12.284272 0.000000 0.000000 0.000000 7.125000 0.000000 0.000000 3.868681 16.812869 2.589987
-8.937525 17.680632 20.761879 -868.690835 -84.674488 1228.678497 0.000000 0.000000 0.000000 -8.474434 -21.132524 -16.270103 2.160362 9.192305 26.398938 -2.460132 -27.153175 17.383483 1.837379 8.511787 24.283894 0.000000 0.000000 0.000000 24.645298 3.478631 -11.778246 -2.560442 -9.947032 28.805451 -0.412217 11.769425 -13.189899 -0.807815 -5.735820 16.019897 3.931920 2.046598 6.856051 3.217286 2.919289 2.487662 0.885720 1.408501 -1.240365 -10.003720 -2.761633 -13.466298 4.276666 -3.534727 30.827313 2.791121 -2.478230 12.754476 0.000000 0.000000 0.000000 -1.858163 5.495716 -23.105940 16.998953 -26.854679 4.087821 14.917866 5.103500 -19.676406 0.000000 0.000000 0.000000 -7.125000 0.000000 0.000000 -13.282990 49.817218 1.602884 0.000000 0.000000 0.000000 -6.343368 -1.966708 23.390594 -24.038683 -35.204781 -7.729006 -20.847895 -20.346938 -12.344983 0.000000 0.000000 0.000000 7.125000 0.000000 0.000000 4.434233 16.824196 2.969833
-9.278690 17.601647 20.952675 -886.413321 -78.435921 1246.538982 0.000000 0.000000 0.000000 -8.356693 -18.816514 -15.104762 1.909886 8.675771 24.786323 -2.061400 -26.915690 22.824861 2.552066 9.929997 28.752079 0.000000 0.000000 0.000000 24.023879 6.453781 -10.756445 -2.760278 -10.296471 29.942181 -0.262003 15.025354 -13.244901 -0.883917 -5.993181 16.764613 3.160691 2.008607 6.731342 3.264666 2.818181 2.363342 1.373037 1.354044 -1.341960 -10.014410 -2.486646 -13.446681 4.013342 -3.166920 31.174481 2.742921 -2.398444 12.856690 0.000000 0.000000 0.000000 -1.981399 7.108998 -22.240846 16.462142 -26.143078 3.847429 15.324838 4.484184 -20.066154 0.000000 0.000000 0.000000 -7.125000 0.000000 0.000000 -13.039686 50.268093 1.718258 0.000000 0.000000 0.000000 -5.808590 -1.500851 24.891249 -21.985327 -32.960389 -6.577880 -20.619886 -18.661776 -11.562493 0.000000 0.000000 0.000000 7.125000 0.000000 0.000000 4.569830 17.673192 2.976593
-9.623364 17.600968 21.174295 -890.434993 -71.783452 1250.618381 0.000000 0.000000 0.000000 -8.880001 -15.807699 -12.946286 1.891322 8.635951 24.663013 -2.451180 -26.825160 15.716540 2.505123 9.847245 28.483404 0.000000 0.000000 0.000000 23.789317 8.186737 -9.942573 -3.043375 -10.764938 31.491246 -0.525208 15.677487 -15.919649 -0.117988 -2.092506 5.766501 3.593996 2.210963 6.581451 2.734383 3.103351 2.336997 0.570369 1.501899 -1.233112 -9.782633 -2.612185 -13.544022 4.641636 -3.736574 31.557438 2.860854 -2.587162 13.087953 0.000000 0.000000 0.000000 -1.022491 7.326295 -21.728319 14.594887 -23.578566 3.062146 15.207840 5.196779 -19.510940 0.000000 0.000000 0.000000 -7.125000 0.000000 0.000000 -12.945041 49.698074 1.520372 0.000000 0.000000 0.000000 -4.400313 -0.547435 23.545080 -20.430008 -31.156803 -5.752277 -20.434002 -17.286106 -10.556395 0.000000 0.000000 0.000000 7.125000 0.000000 0.000000 4.677347 18.753096 2.935195
-9.927920 17.601626 21.365650 -897.221853 -66.938573 1257.724825 0.000000 0.000000 0.000000 -12.331328 -12.740759 -12.456889 1.892691 8.638888 24.672121 -2.201935 -25.244360 7.655176 0.849185 5.870082 16.409975 0.000000 0.000000 0.000000 20.982253 12.006055 -9.524597 -3.132667 -10.906565 31.965575 -0.336699 16.576533 -14.768826 -0.435905 -4.184687 11.603870 0.594665 1.380695 5.983194 2.506911 1.818895 2.283133 2.120526 0.864635 -1.065591 -10.253564 -2.788785 -13.512240 4.803130 -4.022911 31.413522 2.951707 -2.779563 13.063875 0.000000 0.000000 0.000000 -0.871906 8.316292 -23.197373 14.202772 -23.022223 2.907954 15.475822 3.717251 -21.935478 0.000000 0.000000 0.000000 -7.125000 0.000000 0.000000 -13.641208 52.148753 2.432893 0.000000 0.000000 0.000000 -4.730756 -0.582804 20.858067 -17.895014 -28.022393 -4.499854 -20.987604 -17.829798 -12.051486 0.000000 0.000000 0.000000 7.125000 0.000000 0.000000 4.326788 17.122887 2.871000
-10.222792 17.665092 21.613221 -899.183239 -61.439577 1259.835326 0.000000 0.000000 0.000000 -14.426746 -11.056628 -11.012175 1.790006 8.414180 23.979341 -1.711423 -22.839184 3.910785 1.057292 6.537026 18.351198 0.000000 0.000000 0.000000 19.192273 13.592847 -9.403307 -3.302316 -11.168961 32.851935 -0.430071 18.042443 -16.333143 -0.050284 -1.445405 3.975264 0.219116 1.002536 6.086524 1.936514 1.298426 2.200267 1.777180 0.609750 -1.186505 -10.405532 -3.195247 -13.219672 5.426546 -4.886042 30.991467 3.079888 -3.119286 12.925271 0.000000 0.000000 0.000000 -0.023183 6.753924 -19.217786 11.787819 -19.485659 2.030981 13.544922 10.851852 -21.471112 0.000000 0.000000 0.000000 -7.125000 0.000000 0.000000 -15.318490 51.365146 2.450145 0.000000 0.000000 0.000000 -4.406104 -0.163373 15.601051 -16.089051 -25.641164 -3.684464 -21.005211 -17.499007 -10.985003 0.000000 0.000000 0.000000 7.125000 0.000000 0.000000 4.283873 18.253110 2.734645
-10.476695 17.644934 21.833492 -900.203698 -54.462172 1261.002972 0.000000 0.000000 0.000000 -16.093723 -7.430940 -11.150654 1.862430 8.573552 24.470103 -1.270553 -21.088411 -0.806940 0.384598 3.978069 11.015509 0.000000 0.000000 0.000000 17.483515 16.406285 -9.675597 -3.416269 -11.340243 33.436154 -0.090800 20.712377 -15.299702 -0.142956 -2.387558 6.580408 -0.773765 1.037413 6.085091 1.939239 1.277633 2.348388 2.341245 0.591811 -1.054418 -11.256667 -3.615519 -12.957360 6.152640 -5.569630 30.318027 3.392987 -3.436796 12.712284 0.000000 0.000000 0.000000 0.853439 6.401657 -19.546002 12.324788 -20.289761 2.213766 13.818452 10.639346 -22.522767 0.000000 0.000000 0.000000 -7.125000 0.000000 0.000000 -15.521572 52.437479 2.898331 0.000000 0.000000 0.000000 -5.910719 0.514006 15.289201 -15.170222 -24.382213 -3.296201 -24.791851 -20.114744 -9.930611 0.000000 0.000000 0.000000 7.125000 0.000000 0.000000 1.566860 19.066557 0.970224
-10.682717 17.624970 22.040017 -900.717841 -47.834713 1261.822905 0.000000 0.000000 0.000000 -17.486016 -5.158790 -11.278151 1.918880 8.694959 24.845653 -0.582790 -17.359174 -5.466639 0.047805 1.398770 3.846971 0.000000 0.000000 0.000000 16.122698 17.291205 -11.074531 -3.681769 -11.724346 34.763699 -0.671245 15.688187 -17.130352 -0.002771 -0.250361 0.687877 -1.465428 0.956033 6.033780 1.944677 1.122461 2.432913 2.748833 0.506736 -0.944674 -11.574358 -3.623950 -13.150605 6.076852 -5.535952 30.262782 3.413074 -3.490438 12.736183 0.000000 0.000000 0.000000 1.893018 6.334919 -18.583274 13.569649 -22.115984 2.664074 16.374391 9.161158 -21.910192 0.000000 0.000000 0.000000 -7.125000 0.000000 0.000000 -12.748543 52.277701 2.313187 0.000000 0.000000 0.000000 -7.091658 -0.657613 11.759782 -13.276829 -21.691484 -2.554724 -22.909643 -15.572934 -10.644334 0.000000 0.000000 0.000000 7.125000 0.000000 0.000000 2.930170 18.455968 1.854168
